<svg preserveAspectRatio="none" width="100%" height="100%" overflow="visible" style="display: block;" viewBox="0 0 20 20" fill="none" xmlns="http://www.w3.org/2000/svg">
<g id="Shape">
<path id="Normal" fill-rule="evenodd" clip-rule="evenodd" d="M9.99999 1.75C5.44366 1.75 1.75002 5.44365 1.75002 10C1.75002 14.5563 5.44366 18.25 9.99999 18.25C14.5563 18.25 18.25 14.5563 18.25 10C18.25 5.44365 14.5563 1.75 9.99999 1.75ZM9.58325 5.08284C9.99746 5.08284 10.3332 5.41863 10.3332 5.83284V10.1056L12.2622 12.0345C12.555 12.3274 12.555 12.8023 12.2622 13.0952C11.9693 13.3881 11.4944 13.3881 11.2015 13.0952L9.05282 10.9465C8.90321 10.7969 8.83002 10.5998 8.83325 10.4038V5.83284C8.83325 5.41863 9.16903 5.08284 9.58325 5.08284Z" fill="var(--fill-0, #B33528)"/>
</g>
</svg>
